<svg xmlns="http://www.w3.org/2000/svg" viewBox="0 0 1200 740">
<linearGradient id="bg" x1="0" x2="0" y1="0" y2="1">
  <stop offset="0%" stop-color="#f6d8b4"/>
  <stop offset="100%" stop-color="#cf9d69"/>
</linearGradient>
<rect width="1200" height="740" fill="url(#bg)"/>
<rect x="230" y="80" width="720" height="270" fill="#295447" stroke="#8d5c3f" stroke-width="18"/>
<text x="590" y="148" text-anchor="middle" font-family="Georgia" font-size="40" fill="white">Bài 3: Phương trình bậc nhất</text>
<text x="590" y="210" text-anchor="middle" font-family="Georgia" font-size="44" fill="white">2x + 3 = 11</text>
<text x="590" y="266" text-anchor="middle" font-family="Georgia" font-size="40" fill="white">2x = 8</text>
<text x="590" y="320" text-anchor="middle" font-family="Georgia" font-size="40" fill="white">x = 4</text>
<rect x="0" y="540" width="1200" height="200" fill="#9a6c4d"/>
<g fill="#6d472d">
  <rect x="310" y="470" width="120" height="80" rx="8"/><rect x="455" y="470" width="120" height="80" rx="8"/><rect x="600" y="470" width="120" height="80" rx="8"/><rect x="745" y="470" width="120" height="80" rx="8"/>
</g>
<g fill="#7f583b">
  <rect x="340" y="430" width="60" height="40" rx="8"/><rect x="485" y="430" width="60" height="40" rx="8"/><rect x="630" y="430" width="60" height="40" rx="8"/><rect x="775" y="430" width="60" height="40" rx="8"/>
</g>
<!-- teacher -->
<g transform="translate(155,490)">
  <circle cx="0" cy="-118" r="40" fill="#f9cfb0"/>
  <path d="M-40 -127 Q0 -170 40 -124 L40 -92 Q0 -114 -40 -92 Z" fill="#654733"/>
  <rect x="-38" y="-80" width="76" height="118" rx="18" fill="#88b4ea"/>
  <rect x="-22" y="38" width="18" height="82" rx="9" fill="#263f7e"/>
  <rect x="4" y="38" width="18" height="82" rx="9" fill="#263f7e"/>
  <rect x="-60" y="-42" width="24" height="12" rx="6" fill="#f9cfb0" transform="rotate(-18 -60 -42)"/>
  <rect x="40" y="-52" width="100" height="10" rx="5" fill="#c7984a" transform="rotate(-10 40 -52)"/>
</g>
</svg>
